<svg width="20" height="15" viewBox="0 0 20 15" fill="none" xmlns="http://www.w3.org/2000/svg">
<path d="M15.3689 3H5.2627C4.56844 3 4.00606 3.59518 4.00606 4.32288L4 12.2586C4 12.9863 4.56844 13.5814 5.2627 13.5814H15.3689C16.0631 13.5814 16.6316 12.9863 16.6316 12.2586V4.32288C16.6316 3.59518 16.0631 3 15.3689 3ZM15.1157 5.81082L10.6508 8.73432C10.5501 8.79926 10.4341 8.83365 10.3158 8.83365C10.1975 8.83365 10.0815 8.79926 9.98079 8.73432L5.51585 5.81082C5.4534 5.77313 5.39884 5.72265 5.35543 5.6624C5.31202 5.60215 5.28065 5.53336 5.26319 5.46013C5.24573 5.38691 5.24254 5.31075 5.25381 5.23621C5.26508 5.16167 5.29058 5.09027 5.32878 5.02627C5.36698 4.96227 5.41711 4.90698 5.47617 4.86371C5.53523 4.82044 5.602 4.79007 5.67252 4.77442C5.74303 4.75876 5.81584 4.75814 5.88658 4.7726C5.95733 4.78705 6.02457 4.81628 6.08429 4.85853L10.3158 7.62967L14.5473 4.85853C14.607 4.81628 14.6742 4.78705 14.745 4.7726C14.8157 4.75814 14.8885 4.75876 14.9591 4.77442C15.0296 4.79007 15.0964 4.82044 15.1554 4.86371C15.2145 4.90698 15.2646 4.96227 15.3028 5.02627C15.341 5.09027 15.3665 5.16167 15.3778 5.23621C15.389 5.31075 15.3858 5.38691 15.3684 5.46013C15.3509 5.53336 15.3196 5.60215 15.2761 5.6624C15.2327 5.72265 15.1782 5.77313 15.1157 5.81082Z" fill="url(#paint0_linear_10_261)"/>
<defs>
<linearGradient id="paint0_linear_10_261" x1="10.3158" y1="3" x2="10.3158" y2="13.5814" gradientUnits="userSpaceOnUse">
<stop stop-color="#FFBF00"/>
<stop offset="1" stop-color="#F2A60C"/>
</linearGradient>
</defs>
</svg>
