<svg width="20" height="20" viewBox="0 0 20 20" fill="none" xmlns="http://www.w3.org/2000/svg">
<path d="M10 3C6.85016 3 4 5.29079 4 8.83412C4 11.0967 5.83771 13.7581 9.50502 16.8241C9.64361 16.9376 9.82055 17 10.0036 17C10.1866 17 10.3636 16.9376 10.5022 16.8241C14.1623 13.7581 16 11.0967 16 8.83412C16 5.29079 13.1498 3 10 3ZM10 10.1148C9.17474 10.1148 8.49977 9.47448 8.49977 8.69154C8.49977 7.90859 9.17474 7.26822 10 7.26822C10.8253 7.26822 11.5002 7.90859 11.5002 8.69154C11.5002 9.47448 10.8253 10.1148 10 10.1148Z" fill="url(#paint0_linear_10_265)"/>
<defs>
<linearGradient id="paint0_linear_10_265" x1="10" y1="3" x2="10" y2="17" gradientUnits="userSpaceOnUse">
<stop stop-color="#FFBF00"/>
<stop offset="1" stop-color="#F2A60C"/>
</linearGradient>
</defs>
</svg>
