<svg width="20" height="15" viewBox="0 0 20 15" fill="none" xmlns="http://www.w3.org/2000/svg">
<path d="M14.824 8.81963L13.127 8.65797C12.9276 8.6385 12.7255 8.65693 12.5358 8.71188C12.3462 8.76684 12.174 8.85689 12.0321 8.97527L10.8024 9.99932C8.90637 9.19563 7.36524 7.91135 6.40082 6.33132L7.63608 5.30126C7.92386 5.06212 8.06414 4.72812 8.01684 4.38811L7.82366 2.9853C7.78569 2.7137 7.6292 2.46321 7.38398 2.28153C7.13876 2.09984 6.82193 1.99964 6.4938 2H5.3387C4.58359 2 3.95593 2.52371 4.00243 3.1523C4.35674 7.90647 8.91864 11.7027 14.6172 11.998C15.3715 12.0367 16 11.5137 16 10.8844V9.92183C16.0016 9.64959 15.8825 9.38644 15.6654 9.18298C15.4483 8.97952 15.1487 8.85011 14.824 8.81963Z" fill="url(#paint0_linear_10_267)"/>
<defs>
<linearGradient id="paint0_linear_10_267" x1="10" y1="2" x2="10" y2="12" gradientUnits="userSpaceOnUse">
<stop stop-color="#FFBF00"/>
<stop offset="1" stop-color="#F2A60C"/>
</linearGradient>
</defs>
</svg>
